<svg xmlns="http://www.w3.org/2000/svg"><symbol id="arrow-left" viewBox="0 0 224.2 219"><rect width="219.7" height="16.27" x="2.1" y="102.9" rx="7.7"/><path d="M84.2 153.5a8.1 8.1 0 0 1-11.2 2.9L6.3 117.9a8.1 8.1 0 0 1-3-11.1 8.2 8.2 0 0 1 11.2-3l66.7 38.5a8.3 8.3 0 0 1 3 11.2z"/><path d="M84 68.4a8.2 8.2 0 0 1-3 11.2l-66.7 38.5a8.3 8.3 0 0 1-11.2-3 8.1 8.1 0 0 1 3-11.1l66.7-38.5A8.1 8.1 0 0 1 84 68.4z"/></symbol><symbol id="arrow-right" viewBox="0 0 224.2 219"><rect width="219.7" height="16.27" x="2" y="102.9" rx="7.7"/><path d="M142.7 142.3l66.7-38.5a8.1 8.1 0 0 1 11.1 3 8.1 8.1 0 0 1-3 11.1l-66.7 38.5a8.2 8.2 0 0 1-11.2-2.9 8.2 8.2 0 0 1 3.1-11.2z"/><path d="M151 65.5l66.7 38.5a8.1 8.1 0 0 1 3 11.1 8.2 8.2 0 0 1-11.2 3l-66.7-38.5a8.3 8.3 0 0 1-3-11.2 8.2 8.2 0 0 1 11.2-2.9z"/></symbol><symbol id="cart" viewBox="0 0 224.2 219"><path fill="#fff" d="M207.3 44.7H44.4L42 34.8a3.3 3.3 0 0 0-.5-1.2 5.1 5.1 0 0 0-4.9-3.8H15.4a5.2 5.2 0 0 0-5.2 5.3v1.7a5.2 5.2 0 0 0 5.2 5.2h14.8l26.4 108.8a6.1 6.1 0 0 0 6.2 4.7h132.7a6.6 6.6 0 0 0 0-13.1H68l-3.4-14.3h131.9a6.8 6.8 0 0 0 6.7-5.7l10.7-70a6.7 6.7 0 0 0-6.6-7.7z"/><circle cx="186.4" cy="174.6" r="14.2" fill="#fff"/><circle cx="70.5" cy="174.6" r="14.2" fill="#fff"/></symbol><symbol id="facebook" viewBox="0 0 224.2 219"><path fill="#fff" d="M88.6 82.7H65.1V114h23.5v94h39.2v-94H156l3.1-31.3h-31.3V69.4c0-7.1 1.5-10.2 8.6-10.2h22.7V20h-29.8c-28.2 0-40.7 12.6-40.7 36.1z"/></symbol><symbol id="instagram" viewBox="0 0 224.2 219"><path fill="#fff" d="M112.1 21.7c-24.8 0-27.8 0-36.8.7s-16.5 1.5-22.5 3.8A46.7 46.7 0 0 0 37 36.7a42.1 42.1 0 0 0-10.5 15.7A62.5 62.5 0 0 0 22.8 75c-.8 9-.8 12-.8 36.7s0 27.8.8 36.8 2.2 15.8 4.5 21.8a34.6 34.6 0 0 0 9.7 16.5c5.3 5.3 9.8 8.3 15.8 10.5s12 3.8 21.8 4.5h37.5c24.8 0 27.8 0 36.8-.7a78.2 78.2 0 0 0 21.8-4.5c6-2.3 11.2-5.3 15.7-10.5s8.3-9.8 10.5-15.8 3.8-12 4.5-21.8.8-12 .8-36.8 0-27.7-.8-36.7-2.2-15.8-4.5-21.8a34.6 34.6 0 0 0-9.7-16.5c-5.3-5.3-9.8-8.3-15.8-10.5s-12-3.8-21.8-4.5zm0 16.5c24 0 27 0 36.8.7s13.5 1.5 16.5 3a25.5 25.5 0 0 1 10.5 6.8 25.5 25.5 0 0 1 6.8 10.5c1.5 3 3 8.2 3 16.5.7 9.8.7 12 .7 36s0 27.1-.7 36.8a93.3 93.3 0 0 1-3 16.6 29.4 29.4 0 0 1-17.3 17.2c-3 1.5-8.3 3-16.5 3-9.8.8-12 .8-36.8.8s-27 0-36.8-.8a74.7 74.7 0 0 1-16.5-3 25.3 25.3 0 0 1-10.5-6.7 25.5 25.5 0 0 1-6.8-10.5c-1.5-3.1-3-8.3-3-16.6s-.7-12-.7-36 0-27 .7-36.8 1.5-14.3 3-17.3a25.5 25.5 0 0 1 6.8-10.5 25.3 25.3 0 0 1 10.5-6.7c3-1.5 8.2-3 16.5-3 9.8-.8 12-.8 36.8 0zm0 27a46.6 46.6 0 1 0 46.5 46.5 46.8 46.8 0 0 0-46.5-46.5zm0 76.6a30.1 30.1 0 1 1 30-30.1 30.1 30.1 0 0 1-30 30.1zm58.6-78.1a10.6 10.6 0 1 1-10.6-10.5 10.3 10.3 0 0 1 10.6 10.5z"/></symbol><symbol id="nav-icon-close" viewBox="0 0 224.2 219"><path fill="#fff" d="M183.9 206.5l-169-169 25.4-25.4 169 169zm25.4-168.8l-169 169-25.4-25.4 169-169z"/></symbol><symbol id="nav-icon-open" viewBox="0 0 224.2 219"><path fill="#fff" d="M17.4 28.8h189.4v28.4H17.4zm0 66.3h189.4v28.4H17.4zm0 66.3h189.4v28.3H17.4z"/></symbol><symbol id="twitter" viewBox="0 0 224.2 219"><path fill="#fff" d="M217.3 46.8a77.1 77.1 0 0 1-23.6 6.8 44.7 44.7 0 0 0 18.5-22.8 75.3 75.3 0 0 1-26.1 10.1 41.1 41.1 0 0 0-30.4-13.5 41.5 41.5 0 0 0-41.4 41.4c0 3.3 0 6.7.9 9.3-35.5-1.7-65.9-18.6-87-43.1a41 41 0 0 0-5 20.3c0 14.3 7.6 27 18.5 34.6-6.7 0-13.5-1.7-18.5-5.1v.9c0 20.2 14.3 37.1 32.9 40.5a45.3 45.3 0 0 1-11 1.7 22.3 22.3 0 0 1-7.6-.9 40.1 40.1 0 0 0 38.8 28.7 83.9 83.9 0 0 1-51.4 17.7 43.9 43.9 0 0 1-10.2-.8 119.1 119.1 0 0 0 64.2 18.6C155.7 191.2 197 127.9 197 73v-5.1a94.9 94.9 0 0 0 20.3-21.1z"/></symbol><symbol id="email" viewBox="0 0 224.2 219"><path fill="#fff" d="M118.3 129.9a11.3 11.3 0 0 1-15.2 0L16.9 50.8a3.2 3.2 0 0 0-5.4 2.4v101.9a17.4 17.4 0 0 0 17.4 17.4h162a17.4 17.4 0 0 0 17.4-17.4V54.6a3.2 3.2 0 0 0-5.4-2.3z"/><path fill="#fff" d="M117.7 122.3l85-78a3.2 3.2 0 0 0-2.1-5.6H21.9a3.3 3.3 0 0 0-2.2 5.6l85.1 78a9.4 9.4 0 0 0 12.9 0z"/></symbol><symbol id="phone" viewBox="0 0 224.2 219"><path fill="#fff" fill-rule="evenodd" d="M63.1 5.8c26.7-10.1 50.4 54.4 33.8 69.4-3.8 3.4-15.9 8.6-22 13.4A8.3 8.3 0 0 0 72 97c5.4 24.8 19.8 42.7 42 57.5a8.6 8.6 0 0 0 5.4 1.4c10.5-1 15.3-14 20.9-17 19.7-10.4 72.3 33.9 53.6 55.6-48 55.6-114.7-19.7-140.6-56.7S-5.6 31.9 63.1 5.8z"/></symbol></svg>