<svg enable-background="new 0 0 57 52.5" viewBox="0 0 57 52.5" xmlns="http://www.w3.org/2000/svg"><g fill="#fff"><path d="m4.4 50.9c1.7-9.7 3.2-22.6 21.9-32-2.3 3.8-17.3 8.3-17.9 31.6-4 .4-4.2 1.9-4 .4z"/><path d="m2.8 40.2c-.1.8-2-10.5-2-10.5s2.4-8.4 6.1-11.2c1.1 2.2 2 4.6 2.7 7 0 0-.6-8.7-.4-9.1s14.4-21.3 47-13.7c-3.7 7.8-12.3 22.3-13.2 22.4l-12.5 3.7 8.1 2.8c.6.3-9 12.4-9 12.4l-12.3 1.4 3.2 2.6-3.4 3.1s-4.7-.5-6.1-2.2c1.8.4 3.7.7 5.6.9l1.6-1.8s-4-3-4-3.5 14.3-1.6 14.3-1.6l7.9-10.6-10.7-3.5 16.6-4.8s12.6-20.2 12-20.4-27.4-6.9-43.8 13.4c.1 3.2-.4 10.6-.4 10.6s-1.1-1.1-3.3-6.8c-2.5 3.2-4.8 8.7-4.7 9.3s1 7.9.7 10.1z"/></g></svg>