<svg id="Layer_1" data-name="Layer 1" xmlns="http://www.w3.org/2000/svg" width="64" height="64" viewBox="0 0 64 64"><title>logo</title><path d="M8.9,54.9c1.7-9.7,3.2-22.6,21.9-32-2.3,3.8-17.3,8.3-17.9,31.6C8.9,54.9,8.7,56.4,8.9,54.9Z" fill="#fff"/><path d="M7.3,44.2c-.1.8-2-10.5-2-10.5s2.4-8.4,6.1-11.2a37.4,37.4,0,0,1,2.7,7s-.6-8.7-.4-9.1S28.1-.9,60.7,6.7C57,14.5,48.4,29,47.5,29.1L35,32.8l8.1,2.8c.6.3-9,12.4-9,12.4L21.8,49.4,25,52l-3.4,3.1s-4.7-.5-6.1-2.2a48.5,48.5,0,0,0,5.6.9L22.7,52s-4-3-4-3.5S33,46.9,33,46.9l7.9-10.6L30.2,32.8,46.8,28S59.4,7.8,58.8,7.6,31.4.7,15,21c.1,3.2-.4,10.6-.4,10.6s-1.1-1.1-3.3-6.8C8.8,28,6.5,33.5,6.6,34.1S7.6,42,7.3,44.2Z" fill="#fff"/></svg>