<?xml version="1.0" encoding="utf-8"?>
<!-- Generator: Adobe Illustrator 24.0.3, SVG Export Plug-In . SVG Version: 6.00 Build 0)  -->
<svg version="1.1" id="Layer_1" xmlns="http://www.w3.org/2000/svg" xmlns:xlink="http://www.w3.org/1999/xlink" x="0px" y="0px"
	 viewBox="0 0 57 52.5" style="enable-background:new 0 0 57 52.5;" xml:space="preserve">
<style type="text/css">
	.st0{fill:#FFFFFF;}
</style>
<title>logo</title>
<path class="st0" d="M4.4,50.9c1.7-9.7,3.2-22.6,21.9-32C24,22.7,9,27.2,8.4,50.5C4.4,50.9,4.2,52.4,4.4,50.9z"/>
<path class="st0" d="M2.8,40.2c-0.1,0.8-2-10.5-2-10.5s2.4-8.4,6.1-11.2c1.1,2.2,2,4.6,2.7,7c0,0-0.6-8.7-0.4-9.1
	C9.4,16,23.6-4.9,56.2,2.7C52.5,10.5,43.9,25,43,25.1l-12.5,3.7l8.1,2.8c0.6,0.3-9,12.4-9,12.4l-12.3,1.4l3.2,2.6l-3.4,3.1
	c0,0-4.7-0.5-6.1-2.2c1.8,0.4,3.7,0.7,5.6,0.9l1.6-1.8c0,0-4-3-4-3.5s14.3-1.6,14.3-1.6l7.9-10.6l-10.7-3.5L42.3,24
	c0,0,12.6-20.2,12-20.4S26.9-3.3,10.5,17c0.1,3.2-0.4,10.6-0.4,10.6S9,26.5,6.8,20.8C4.3,24,2,29.5,2.1,30.1
	C2.2,30.7,3.1,38,2.8,40.2z"/>
</svg>
